<?xml version="1.0" encoding="UTF-8"?><svg id="Warstwa_2" xmlns="http://www.w3.org/2000/svg" viewBox="0 0 521.61 522.58"><defs><style>.cls-1{fill:none;stroke:#f9fafb;stroke-miterlimit:10;stroke-width:30px;}.cls-2{fill:#f9fafb;}</style></defs><path class="cls-2" d="M201.25,30.5c45.61,0,88.49,17.76,120.74,50.01,32.25,32.25,50.01,75.13,50.01,120.74s-17.76,88.49-50.01,120.74c-32.25,32.25-75.13,50.01-120.74,50.01s-88.49-17.76-120.74-50.01c-32.25-32.25-50.01-75.13-50.01-120.74s17.76-88.49,50.01-120.74c32.25-32.25,75.13-50.01,120.74-50.01m0-30C90.38,.5,.5,90.38,.5,201.25s89.88,200.75,200.75,200.75,200.75-89.88,200.75-200.75S312.12,.5,201.25,.5h0Z"/><line class="cls-1" x1="319" y1="336" x2="511.5" y2="511.5"/></svg>