<?xml version="1.0" encoding="UTF-8"?><svg id="Warstwa_3" xmlns="http://www.w3.org/2000/svg" viewBox="0 0 521.61 522.58"><defs><style>.cls-1{fill:#3f3f46;}</style></defs><path class="cls-1" d="M85.38,154.57c-1.21-4.3-6.49-6.61-10.34-4.04-2.32,1.55-3.42,4.43-2.38,7.01,.05,2.2,1.25,4.35,3.97,5.15,4.81,1.42,10.2-2.96,8.75-8.12Z"/><g><path class="cls-1" d="M470.58,178.08c-.05-4.06-3.58-5.86-6.7-5.41-.85-.65-1.92-1.08-3.25-1.13-101.01-4.01-202.07-3.52-303.13-2.17-2.67-4.36-5.35-8.72-8.02-13.08,96.65-31.75,193.3-63.5,289.95-95.25,3.15-1.04,4.23-3.88,3.83-6.45,.21-.86,.23-1.81-.08-2.87-4.18-14.64-9.04-29.03-14.59-43.2-.52-1.34-1.39-2.28-2.4-2.9-.9-2.5-3.29-4.4-6.58-3.4C292.59,40.57,165.5,79.43,44.19,133.73c-1.9,.85-2.76,2.25-2.91,3.76-.59,1.39-.66,3.04,.14,4.74,3.02,6.44,6.05,12.88,9.07,19.31,.51,1.08,1.2,1.8,1.98,2.27,.31,3.55,.62,7.1,.94,10.66-.18,.52-.28,1.07-.32,1.62-1.16,.91-1.94,2.32-1.9,4.27,2.47,104.27,1.53,208.32-2.23,312.55-.06,1.53,.42,2.72,1.17,3.61-2.68,3.12-1.3,9.48,4.15,9.68,134.64,4.81,269.41,1.08,404.06,5.8,.87,.03,1.63-.11,2.29-.37,3.29,1.08,7.69-.63,7.8-5.16,2.54-109.47,3.43-218.89,2.14-328.38Zm-44.23,3.65c-.56,.92-.85,1.99-.75,3.14-.7-1.08-1.41-2.15-2.12-3.22,.96,.03,1.92,.05,2.87,.08Zm-14.71-.43c-.37,1.27-.2,2.72,.79,4.19,7.84,11.67,15.19,24.24,23.85,35.53-11.86-.56-23.72-1.04-35.58-1.46-9.89-11.86-18.5-24.57-25.97-38.08-.21-.37-.44-.69-.68-.99,12.53,.22,25.06,.47,37.59,.8Zm9.23,77.05c.3-.02,.6-.04,.89-.07-.08,.24-.14,.5-.21,.75-.23-.23-.46-.46-.69-.69Zm.38,195.54c-.14,3.75-.27,7.5-.41,11.24-.78-.05-1.57-.1-2.35-.16,1.2-1.61,2.02-3.5,2.25-5.61,.19-1.83,.35-3.65,.51-5.48Zm-112.99-213.01l-1.45-1.31c-5.58-5.04-13.32-3.19-17.16,1.56-53.24,.45-106.48-1.26-159.64-5.09H415.51c-35.72,2.58-71.49,4.21-107.26,4.85Zm89.53,19.07c-.16,.65-.24,1.32-.27,2.01-1.36-.97-2.91-1.5-4.51-1.72,1.6-.1,3.19-.19,4.79-.29Zm-9.45,.58c-1.28,.33-2.51,.85-3.64,1.52-.4-.41-.8-.82-1.2-1.22,1.61-.09,3.23-.2,4.84-.3Zm-144.03,3.17c-.89,1.02-1.57,2.16-1.99,3.39-1.39-1.16-2.78-2.32-4.17-3.47,2.05,.04,4.1,.05,6.16,.08Zm-37.86,1.45c-1-.82-1.99-1.65-2.99-2.47,.66,.02,1.32,.05,1.98,.07,.21,.79,.56,1.59,1.01,2.4Zm-44.66,6.97c-2.05,.45-3.97,1.47-5.56,2.88-2.45-3.2-4.91-6.39-7.36-9.59-6.24-8.12-17.23-5.5-20.33,1.55-5.83-4.49-14.49-.12-17.09,6.26-3.89-5.13-7.79-10.25-11.68-15.38-.46-.61-.97-1.13-1.49-1.62,18.9,1.67,37.82,3.04,56.75,4.16,.26,1.23,.73,2.47,1.54,3.71,1.74,2.67,3.49,5.35,5.23,8.02Zm204.31-91.75c-1.22,1.11-2.02,2.67-1.9,4.42-1.01-1.5-2.02-3-3.03-4.5,1.64,.02,3.29,.06,4.93,.08Zm-15.38-.21c-.89,1.49-1.02,3.39,.29,5.33,5.71,8.49,11.36,17.03,17.13,25.48,2.05,3.01,4.32,5.47,6.72,7.78-13.23-.36-26.47-.66-39.7-.89-.14-1.01-.54-2.04-1.34-2.99-9.19-10.96-17.22-22.69-24.32-35.07,13.74,.06,27.48,.18,41.22,.35Zm-67.29-.4c.1,.18,.17,.37,.3,.55,8.23,12.24,15.93,25.47,25.16,37.18-13.71-.16-27.43-.27-41.15-.34-.21-.78-.6-1.55-1.21-2.27-9.17-10.93-17.18-22.64-24.27-34.99,13.72-.08,27.45-.13,41.17-.13Zm-67.11,.32c.05,.08,.07,.16,.13,.23,8.13,12.09,15.74,25.15,24.82,36.75-13.61-.02-27.22-.02-40.83,0-.22-.74-.6-1.48-1.19-2.18-9.01-10.75-16.91-22.25-23.91-34.37,13.66-.17,27.32-.31,40.98-.43Zm-66.8,.77c8,11.95,15.53,24.8,24.49,36.24-13.61,.02-27.22,.04-40.83,.05-.21-.77-.6-1.54-1.2-2.26-8.78-10.47-16.5-21.66-23.37-33.43,13.64-.21,27.28-.41,40.91-.59Zm-6.13-34.49c-1.45-2.37-2.91-4.74-4.36-7.11,4.3,1.47,8.62,2.9,12.94,4.3-2.86,.94-5.72,1.88-8.58,2.82Zm159.71-52.47c.26-.9,.32-1.86,.19-2.8,1.16,.52,2.31,1.07,3.47,1.6-1.22,.4-2.44,.8-3.65,1.2ZM418.7,14.34c3.09,8.03,5.95,16.14,8.6,24.31-11.37-5.53-22.74-11.06-34.11-16.59,8.5-2.58,17.01-5.15,25.51-7.72Zm-50.66,15.38c.13,.07,.23,.15,.37,.21,17.45,7.79,33.36,18.63,51.06,25.72-12.9,4.24-25.81,8.48-38.71,12.72-19.2-8.71-38.62-16.89-58.25-24.58,15.16-4.74,30.34-9.42,45.53-14.06Zm-58.85,18.24c.13,.56,.36,1.1,.65,1.61-.87-.33-1.73-.67-2.6-1,.65-.21,1.3-.41,1.95-.61Zm-18.05,5.74c.6,.71,1.38,1.32,2.42,1.72,19.43,7.48,38.87,14.95,58.3,22.43-10.22,3.36-20.44,6.72-30.66,10.07-.47-.75-1.15-1.42-2.17-1.93-19.32-9.66-39.38-16.94-60.25-21.81,10.77-3.55,21.56-7.03,32.36-10.49Zm-65.91,21.77c23.41,6.04,46.46,13.13,69.23,21.24-14.31,4.7-28.62,9.4-42.94,14.11-.62-1.11-1.6-2.07-3.06-2.62-19.67-7.44-39.58-14.07-59.74-19.99,12.13-4.34,24.31-8.57,36.5-12.74Zm-66.87,23.86c.64,1.07,1.66,1.96,3.17,2.43,20.3,6.21,40.61,12.41,60.91,18.62-14.06,4.62-28.12,9.24-42.18,13.86-.6-1.19-1.6-2.22-3.1-2.83-18.07-7.24-36.49-13.21-55.3-18.07,12.12-4.79,24.29-9.44,36.49-14Zm-61.5,24.07c.37,.26,.78,.49,1.24,.67,6.29,2.53,12.62,4.96,18.97,7.33-12.19-.44-24.38-.82-36.57-1.14,5.45-2.31,10.9-4.61,16.37-6.87Zm31.22,19.75c5.4,8.8,10.8,17.6,16.2,26.4-26.62,.37-53.23,.79-79.84,1.2-.87-9.87-1.73-19.73-2.6-29.6,22.09,.46,44.17,1.12,66.25,1.99Zm-65.47,40.94c.87-.43,1.59-1.09,2.05-1.99,6.07-.09,12.14-.19,18.21-.28,7.76,11.69,15.14,24.15,23.87,35.29-14.49-.02-28.99-.06-43.48-.16-.18-10.95-.39-21.91-.65-32.87Zm1.94,127.87c-.25,.28-.48,.58-.7,.89,.03-10.34,.03-20.67,0-31.01,.37,10.04,.61,20.08,.7,30.12Zm-.76-75.95c-.1,.14-.2,.28-.29,.42,0-.14,0-.28,0-.42h.3Zm-.49,140.38c.25-16.37,.4-32.74,.49-49.11,.26,.6,.53,1.2,.79,1.8-.09,15.78-.51,31.55-1.28,47.31Zm17.62,63.93c.14-1.31,.28-2.62,.42-3.93,.57,1.08,1.16,2.15,1.75,3.21-.78,.17-1.5,.41-2.17,.72Zm31.72-118.78c.91-.9,2.16-1.49,3.81-1.49h62.46c7.32,0,7.31,11.36,0,11.36h-60.51c1.41,2.43,2.87,4.84,4.26,7.28-1.68-2.41-3.34-4.84-4.98-7.28h-1.24c-5.13,0-6.64-5.57-4.59-8.91-3.29-5.17-6.48-10.4-9.57-15.72l-10.11-18.81c7.02,11.07,13.79,22.29,20.45,33.57Zm66.28,34.85h-62.46c-7.32,0-7.31-11.36,0-11.36h62.46c7.32,0,7.31,11.36,0,11.36Zm.47,25.94c.46,5.47,1.39,10.71,2.76,15.77-.91-.28-1.82-.56-2.73-.81-2.26-4.6-4.55-9.18-6.86-13.75,2.39,.17,4.79-.26,6.83-1.2Zm-72.02,38.79h82.91v-59.3c-.24,.24-.49,.46-.71,.72-2.67,.26-5.21,1.49-7.13,3.4-.51-1.31-1.03-2.62-1.55-3.92,3.6-.34,7.04-2.76,9.08-6.11,.1,.13,.21,.27,.31,.4v-48.77H107.39c-7.32,0-7.31-11.36,0-11.36H410.62c7.32,0,7.31,11.36,0,11.36h-107.89v113.57h107.89c7.32,0,7.31,11.36,0,11.36H220.77c2.45,2.79,4.96,5.54,7.65,8.14,1.33,1.28,2.74,2.62,4.19,3.97-2.84,1.11-5.95,1.76-9,1.93-2.54-4.04-5.9-7.67-9.66-10.72-.49-.4-1-.73-1.5-1.1,.94-.58,1.76-1.35,2.51-2.22H107.39c-7.32,0-7.31-11.36,0-11.36Zm211.44-88.33c-.05-.39-.14-.74-.22-1.11,3.9-2.19,6.55-6.31,5.61-11,2.1,1.94,4.2,3.87,6.3,5.81-.57,3.36-1.13,6.72-1.7,10.08h70.44c3.08,0,5.68,2.61,5.68,5.68v55.65c0,1.68-.62,2.96-1.54,3.87-.03,.04-.07,.07-.11,.11-.06,.06-.12,.12-.19,.18-.91,.91-2.17,1.52-3.84,1.52h-74.96c-3.08,0-5.68-2.61-5.68-5.68v-55.65c0-3.08,2.61-5.68,5.68-5.68h4.08c-2.58-3.23-6.13-4.3-9.56-3.78Zm54.71-11.19c2.72-1.04,5.04-2.98,6.37-5.47,1.14,1.15,2.28,2.31,3.42,3.46,.55,.55,1.12,1.03,1.71,1.43-.39,5.1-.77,10.21-1.15,15.31-2.34-3.2-6.05-4.79-9.7-4.71-.19-3.18-.38-6.35-.57-9.53-.01-.18-.06-.33-.08-.5Zm26,144.3c-1.41,.05-2.82,.1-4.24,.15,1.26-1.14,2.3-2.57,3.05-4.16,.02,.16,.04,.31,.06,.47,.2,1.38,.61,2.53,1.13,3.54Zm-17.32,.61c-4.62,.16-9.25,.33-13.87,.49,2.75-1.04,5.03-2.29,6.88-3.73,2.3,1.13,4.63,2.2,7,3.24Zm-34.58,1.22c-2.64,.09-5.28,.19-7.92,.28,.3-.95,.51-1.94,.65-2.96,2.41,1.09,4.84,1.98,7.27,2.68Zm-37.71-13.3c-1.37-1.19-2.83-2.47-4.24-3.56-.75-.57-1.47-1.17-2.21-1.75,0-.04,.01-.07,.02-.11,.51-1.06,.9-2.19,1.06-3.41,.22-1.71,.44-3.42,.65-5.12,.06,.05,.11,.1,.17,.14,.98,.79,2,1.62,3.05,2.48,.34,3.03,.68,6.07,1.01,9.1,.09,.77,.26,1.51,.49,2.23Zm-45.99,11.93c-4.68-.04-9.36-.06-14.03-.06,1.96-1.15,3.83-2.5,5.61-4.07,2.75,1.59,5.57,2.98,8.43,4.13Zm-65.15-1.1c-5.08,.82-12.38-2.04-17.86-5.25,.3-.96,.46-1.96,.47-3,5.59,3.11,11.45,5.93,17.39,8.25Zm-40.58,31.86c57.35-2.02,114.7-4.04,172.05-6.06,33.87,1.77,67.71,4.7,101.46,8.74-91.15-2.49-182.34-1.63-273.51-2.68Zm280.69-19.15c-2.24-.28-4.49-.56-6.73-.83,0-.02,0-.04,0-.06,2.48-.13,4.94-.96,6.94-2.49-.07,1.13-.14,2.26-.21,3.39Zm-1.54-160.34c.21-4.08,.49-8.16,.81-12.24,1.78,.41,3.61,.34,5.35-.12,.06,5.39,.06,10.78,.08,16.17-1.53-1.97-3.77-3.24-6.24-3.81Zm4.24-60.97c.27-.02,.54-.05,.8-.07,.02,.48,.03,.96,.05,1.45-.25-.49-.53-.95-.85-1.38Zm10.08-34.86c-4.71-5.18-8.96-10.87-12.98-16.76,4.61,5.72,9.52,11.23,14.35,16.83-.46-.02-.91-.05-1.37-.07Zm5.51,278.79c-.64-.02-1.28-.04-1.92-.06,.71-.48,1.37-1.06,1.96-1.71-.01,.59-.02,1.18-.04,1.77Zm-20.72-318.58c7.59,.25,15.19,.52,22.78,.82,.11,9.74,.2,19.48,.27,29.21-8.32-9.58-16.72-18.92-23.05-30.03Z"/><path class="cls-1" d="M329.99,384.6v7.64h10.98c-3.99-2.25-7.55-4.74-10.98-7.64Z"/><path class="cls-1" d="M349.72,390.5c-.44,.69-1.06,1.28-1.78,1.74h3.56c-.6-.58-1.19-1.16-1.78-1.74Z"/><path class="cls-1" d="M372.15,392.24c-4.09-4.37-8.17-8.74-12.26-13.11,1.3,3.35,2.54,6.72,3.71,10.14,.37,1.08,.39,2.08,.15,2.97h8.4Z"/><path class="cls-1" d="M291.37,347.85c-.25-1.87-.5-3.74-.76-5.61-1.03-7.62-7.56-9.42-13.3-7.47,1.59-2.39,2.08-5.35,.67-8.53,3.69,3.07,7.38,6.15,11.07,9.22,.72,.6,1.5,1.05,2.31,1.43v-29.32h-89.72v113.57h89.72v-73.29Zm-60.31,13.23c-1.52-1.51-3.04-3.02-4.56-4.53-1.22-1.21-2.54-2.03-3.9-2.57,5.22-.77,9.94-5.11,10.42-10.33,.82,.85,1.64,1.69,2.46,2.54-1.63,4.93-3.09,9.89-4.41,14.88Zm18.86,18.71c.07-.32,.13-.63,.19-.95,.71,1.08,1.41,2.18,2.13,3.25-.77-.77-1.55-1.54-2.32-2.31Zm18.38-34.53c-.03,.34-.07,.67-.1,1.01-.84-2.01-1.72-4.01-2.63-6.01,1.67,.1,3.35-.09,4.93-.59-1.18,1.6-1.99,3.48-2.2,5.58Z"/><path class="cls-1" d="M331.45,372.47c-.48-.97-.97-1.95-1.46-2.91v3.07c.48-.12,.97-.17,1.46-.15Z"/><path class="cls-1" d="M393.59,359.89v-.47c-.04,.07-.08,.14-.12,.2,.04,.09,.08,.18,.12,.27Z"/><path class="cls-1" d="M392.72,352.75c.34,.31,.63,.64,.86,.97v-5.78h-6.11c1.75,1.6,3.5,3.2,5.24,4.81Z"/><path class="cls-1" d="M351.45,353.5c-1.17-1.85-2.34-3.71-3.52-5.56h-1.68c1.73,1.85,3.46,3.7,5.2,5.56Z"/><path class="cls-1" d="M393.59,388.56c-2.1,1.66-5.1,2.01-7.17-.53-1.57-1.93-3.21-3.79-4.82-5.69,1.41,2.67,2.86,5.33,4.19,8.05,.3,.61,.46,1.23,.54,1.84h7.26v-3.68Z"/><path class="cls-1" d="M329.99,347.95v9.72c2.34-1.22,5.56-.95,7.64,1.85,.95,1.28,1.96,2.51,2.94,3.77-1.87-3.8-3.82-7.57-5.89-11.3-.76-1.37-.88-2.77-.55-4.04h-4.14Z"/><path class="cls-1" d="M367.49,350.45c.53-1.02,1.33-1.89,2.29-2.5h-4.84c.86,.83,1.7,1.67,2.55,2.5Z"/></g></svg>